<svg xmlns="http://www.w3.org/2000/svg" viewBox="0 0 400 400" fill="none">
  <rect width="400" height="400" fill="#1a1a1a"/>
  <defs>
    <linearGradient id="em-grad" x1="0%" y1="100%" x2="0%" y2="0%">
      <stop offset="0%" style="stop-color:#374151;stop-opacity:0.5" />
      <stop offset="100%" style="stop-color:#6b7280;stop-opacity:0.2" />
    </linearGradient>
  </defs>
  <rect width="400" height="400" fill="url(#em-grad)"/>
  <!-- Factory Smokestacks -->
  <rect x="80" y="280" width="100" height="80" fill="#4b5563" opacity="0.7"/>
  <rect x="100" y="200" width="30" height="80" fill="#6b7280" opacity="0.8"/>
  <rect x="150" y="220" width="25" height="60" fill="#6b7280" opacity="0.8"/>
  <!-- Smoke/Emissions -->
  <g fill="#9ca3af" opacity="0.5">
    <circle cx="115" cy="170" r="20"/>
    <circle cx="130" cy="140" r="25"/>
    <circle cx="110" cy="110" r="18"/>
    <circle cx="145" cy="90" r="22"/>
    <circle cx="162" cy="190" r="15"/>
    <circle cx="175" cy="160" r="20"/>
    <circle cx="165" cy="130" r="16"/>
  </g>
  <!-- CO2 Text -->
  <text x="280" y="180" fill="#f87171" font-family="system-ui" font-size="48" font-weight="700" opacity="0.6">CO₂</text>
  <!-- Chart Arrow Down -->
  <g transform="translate(280, 260)" stroke="#22c55e" stroke-width="4" fill="none">
    <polyline points="0,0 30,30 60,15 90,45"/>
    <polyline points="80,45 90,45 90,35"/>
  </g>
  <text x="200" y="385" text-anchor="middle" fill="#9ca3af" font-family="system-ui" font-size="14" font-weight="600">EMISSIONS</text>
</svg>

